<svg width="32" height="32" viewBox="0 0 32 32" fill="none" xmlns="http://www.w3.org/2000/svg">
<path d="M24.879 2.87901C25.1546 2.58769 25.4857 2.35458 25.8529 2.19343C26.2201 2.03229 26.6158 1.94639 27.0168 1.94081C27.4177 1.93524 27.8157 2.0101 28.1873 2.16097C28.5588 2.31184 28.8963 2.53566 29.1798 2.8192C29.4634 3.10274 29.6872 3.44025 29.8381 3.81177C29.9889 4.18329 30.0638 4.58129 30.0582 4.98224C30.0526 5.38319 29.9667 5.77895 29.8056 6.14613C29.6444 6.51331 29.4113 6.84446 29.12 7.12001L20.33 15.91C20.3184 15.9216 20.3091 15.9354 20.3028 15.9506C20.2965 15.9658 20.2933 15.9821 20.2933 15.9985C20.2933 16.015 20.2965 16.0312 20.3028 16.0464C20.3091 16.0616 20.3184 16.0754 20.33 16.087L29.12 24.877C29.4023 25.1547 29.6269 25.4856 29.7807 25.8505C29.9345 26.2154 30.0146 26.6072 30.0163 27.0032C30.0179 27.3992 29.9412 27.7917 29.7904 28.1579C29.6396 28.5241 29.4179 28.8568 29.1379 29.1369C28.8579 29.4169 28.5252 29.6388 28.159 29.7896C27.7929 29.9405 27.4004 30.0173 27.0044 30.0158C26.6084 30.0142 26.2166 29.9342 25.8517 29.7805C25.4867 29.6268 25.1558 29.4023 24.878 29.12L16.088 20.33C16.0764 20.3184 16.0626 20.3091 16.0474 20.3028C16.0322 20.2965 16.016 20.2933 15.9995 20.2933C15.9831 20.2933 15.9668 20.2965 15.9516 20.3028C15.9364 20.3091 15.9226 20.3184 15.911 20.33L7.12101 29.12C6.8433 29.4023 6.51245 29.6269 6.14752 29.7807C5.78259 29.9346 5.39082 30.0146 4.99481 30.0163C4.59879 30.0179 4.20636 29.9412 3.84016 29.7904C3.47396 29.6396 3.14123 29.4179 2.86117 29.1379C2.58111 28.8579 2.35925 28.5252 2.2084 28.159C2.05755 27.7929 1.9807 27.4004 1.98226 27.0044C1.98383 26.6084 2.06379 26.2166 2.21753 25.8517C2.37127 25.4867 2.59574 25.1558 2.87801 24.878L11.668 16.088C11.6797 16.0764 11.6889 16.0626 11.6952 16.0474C11.7015 16.0322 11.7047 16.016 11.7047 15.9995C11.7047 15.9831 11.7015 15.9668 11.6952 15.9516C11.6889 15.9364 11.6797 15.9226 11.668 15.911L2.87801 7.12101C2.3229 6.55692 2.01318 5.79633 2.01631 5.00492C2.01944 4.21351 2.33516 3.45539 2.89472 2.89571C3.45427 2.33603 4.21231 2.02012 5.00372 2.01681C5.79513 2.01349 6.55579 2.32304 7.12001 2.87801L15.91 11.668C15.9216 11.6797 15.9354 11.6889 15.9506 11.6952C15.9658 11.7015 15.9821 11.7047 15.9985 11.7047C16.015 11.7047 16.0312 11.7015 16.0464 11.6952C16.0616 11.6889 16.0754 11.6797 16.087 11.668L24.877 2.87801L24.879 2.87901Z" fill="#ECFEFA"/>
</svg>
