<svg width="40" height="40" viewBox="0 0 40 40" fill="none" xmlns="http://www.w3.org/2000/svg">
<path d="M26.6667 28.3333C27.5507 28.3333 28.3986 28.6845 29.0237 29.3096C29.6488 29.9348 30 30.7826 30 31.6667C30 32.5507 29.6488 33.3986 29.0237 34.0237C28.3986 34.6488 27.5507 35 26.6667 35C25.7826 35 24.9348 34.6488 24.3096 34.0237C23.6845 33.3986 23.3333 32.5507 23.3333 31.6667C23.3333 30.7826 23.6845 29.9348 24.3096 29.3096C24.9348 28.6845 25.7826 28.3333 26.6667 28.3333ZM13.3333 28.3333C14.2174 28.3333 15.0652 28.6845 15.6904 29.3096C16.3155 29.9348 16.6667 30.7826 16.6667 31.6667C16.6667 32.5507 16.3155 33.3986 15.6904 34.0237C15.0652 34.6488 14.2174 35 13.3333 35C12.4493 35 11.6014 34.6488 10.9763 34.0237C10.3512 33.3986 10 32.5507 10 31.6667C10 30.7826 10.3512 29.9348 10.9763 29.3096C11.6014 28.6845 12.4493 28.3333 13.3333 28.3333ZM26.6667 16.6667C27.5507 16.6667 28.3986 17.0179 29.0237 17.643C29.6488 18.2681 30 19.1159 30 20C30 20.8841 29.6488 21.7319 29.0237 22.357C28.3986 22.9821 27.5507 23.3333 26.6667 23.3333C25.7826 23.3333 24.9348 22.9821 24.3096 22.357C23.6845 21.7319 23.3333 20.8841 23.3333 20C23.3333 19.1159 23.6845 18.2681 24.3096 17.643C24.9348 17.0179 25.7826 16.6667 26.6667 16.6667ZM13.3333 16.6667C14.2174 16.6667 15.0652 17.0179 15.6904 17.643C16.3155 18.2681 16.6667 19.1159 16.6667 20C16.6667 20.8841 16.3155 21.7319 15.6904 22.357C15.0652 22.9821 14.2174 23.3333 13.3333 23.3333C12.4493 23.3333 11.6014 22.9821 10.9763 22.357C10.3512 21.7319 10 20.8841 10 20C10 19.1159 10.3512 18.2681 10.9763 17.643C11.6014 17.0179 12.4493 16.6667 13.3333 16.6667ZM26.6667 5C27.5507 5 28.3986 5.35119 29.0237 5.97631C29.6488 6.60143 30 7.44928 30 8.33333C30 9.21739 29.6488 10.0652 29.0237 10.6904C28.3986 11.3155 27.5507 11.6667 26.6667 11.6667C25.7826 11.6667 24.9348 11.3155 24.3096 10.6904C23.6845 10.0652 23.3333 9.21739 23.3333 8.33333C23.3333 7.44928 23.6845 6.60143 24.3096 5.97631C24.9348 5.35119 25.7826 5 26.6667 5ZM13.3333 5C14.2174 5 15.0652 5.35119 15.6904 5.97631C16.3155 6.60143 16.6667 7.44928 16.6667 8.33333C16.6667 9.21739 16.3155 10.0652 15.6904 10.6904C15.0652 11.3155 14.2174 11.6667 13.3333 11.6667C12.4493 11.6667 11.6014 11.3155 10.9763 10.6904C10.3512 10.0652 10 9.21739 10 8.33333C10 7.44928 10.3512 6.60143 10.9763 5.97631C11.6014 5.35119 12.4493 5 13.3333 5Z" fill="#5DA9E9"/>
</svg>
