<svg width="40" height="40" viewBox="0 0 40 40" fill="none" xmlns="http://www.w3.org/2000/svg">
<path d="M11.6667 26.6667C11.6667 27.5507 11.3155 28.3986 10.6904 29.0237C10.0652 29.6488 9.21739 30 8.33333 30C7.44928 30 6.60143 29.6488 5.97631 29.0237C5.35119 28.3986 5 27.5507 5 26.6667C5 25.7826 5.35119 24.9348 5.97631 24.3096C6.60143 23.6845 7.44928 23.3333 8.33333 23.3333C9.21739 23.3333 10.0652 23.6845 10.6904 24.3096C11.3155 24.9348 11.6667 25.7826 11.6667 26.6667ZM11.6667 13.3333C11.6667 14.2174 11.3155 15.0652 10.6904 15.6904C10.0652 16.3155 9.21739 16.6667 8.33333 16.6667C7.44928 16.6667 6.60143 16.3155 5.97631 15.6904C5.35119 15.0652 5 14.2174 5 13.3333C5 12.4493 5.35119 11.6014 5.97631 10.9763C6.60143 10.3512 7.44928 10 8.33333 10C9.21739 10 10.0652 10.3512 10.6904 10.9763C11.3155 11.6014 11.6667 12.4493 11.6667 13.3333V13.3333ZM23.3333 26.6667C23.3333 27.5507 22.9821 28.3986 22.357 29.0237C21.7319 29.6488 20.8841 30 20 30C19.1159 30 18.2681 29.6488 17.643 29.0237C17.0179 28.3986 16.6667 27.5507 16.6667 26.6667C16.6667 25.7826 17.0179 24.9348 17.643 24.3096C18.2681 23.6845 19.1159 23.3333 20 23.3333C20.8841 23.3333 21.7319 23.6845 22.357 24.3096C22.9821 24.9348 23.3333 25.7826 23.3333 26.6667V26.6667ZM23.3333 13.3333C23.3333 14.2174 22.9821 15.0652 22.357 15.6904C21.7319 16.3155 20.8841 16.6667 20 16.6667C19.1159 16.6667 18.2681 16.3155 17.643 15.6904C17.0179 15.0652 16.6667 14.2174 16.6667 13.3333C16.6667 12.4493 17.0179 11.6014 17.643 10.9763C18.2681 10.3512 19.1159 10 20 10C20.8841 10 21.7319 10.3512 22.357 10.9763C22.9821 11.6014 23.3333 12.4493 23.3333 13.3333V13.3333ZM35 26.6667C35 27.5507 34.6488 28.3986 34.0237 29.0237C33.3986 29.6488 32.5507 30 31.6667 30C30.7826 30 29.9348 29.6488 29.3096 29.0237C28.6845 28.3986 28.3333 27.5507 28.3333 26.6667C28.3333 25.7826 28.6845 24.9348 29.3096 24.3096C29.9348 23.6845 30.7826 23.3333 31.6667 23.3333C32.5507 23.3333 33.3986 23.6845 34.0237 24.3096C34.6488 24.9348 35 25.7826 35 26.6667ZM35 13.3333C35 14.2174 34.6488 15.0652 34.0237 15.6904C33.3986 16.3155 32.5507 16.6667 31.6667 16.6667C30.7826 16.6667 29.9348 16.3155 29.3096 15.6904C28.6845 15.0652 28.3333 14.2174 28.3333 13.3333C28.3333 12.4493 28.6845 11.6014 29.3096 10.9763C29.9348 10.3512 30.7826 10 31.6667 10C32.5507 10 33.3986 10.3512 34.0237 10.9763C34.6488 11.6014 35 12.4493 35 13.3333V13.3333Z" fill="#5DA9E9"/>
</svg>
