<svg width="20" height="20" viewBox="0 0 20 20" fill="none" xmlns="http://www.w3.org/2000/svg">
<path d="M16.6667 16.6666H3.33341C2.89139 16.6666 2.46746 16.491 2.1549 16.1784C1.84234 15.8659 1.66675 15.4419 1.66675 14.9999V4.92742C1.68544 4.49808 1.86926 4.09255 2.17981 3.7955C2.49037 3.49845 2.90367 3.33285 3.33341 3.33325H16.6667C17.1088 3.33325 17.5327 3.50885 17.8453 3.82141C18.1578 4.13397 18.3334 4.55789 18.3334 4.99992V14.9999C18.3334 15.4419 18.1578 15.8659 17.8453 16.1784C17.5327 16.491 17.1088 16.6666 16.6667 16.6666ZM3.33341 6.55659V14.9999H16.6667V6.55659L10.0001 10.9999L3.33341 6.55659ZM4.00008 4.99992L10.0001 8.99992L16.0001 4.99992H4.00008Z" fill="black"/>
</svg>
