<svg width="46" height="42" viewBox="0 0 46 42" fill="none" xmlns="http://www.w3.org/2000/svg">
<path d="M44.216 20.6582L25.3488 1.80078L24.0842 0.536134C23.796 0.249887 23.4064 0.0892334 23.0002 0.0892334C22.594 0.0892334 22.2044 0.249887 21.9162 0.536134L1.78438 20.6582C1.48912 20.9523 1.25578 21.3026 1.09811 21.6884C0.94045 22.0741 0.861667 22.4876 0.866413 22.9043C0.885945 24.623 2.31661 25.9951 4.03536 25.9951H6.11055V41.8984H39.8899V25.9951H42.009C42.844 25.9951 43.6301 25.668 44.2209 25.0771C44.5118 24.7872 44.7423 24.4424 44.8991 24.0627C45.0558 23.683 45.1356 23.276 45.134 22.8652C45.134 22.0352 44.8068 21.249 44.216 20.6582ZM25.7346 38.3828H20.2658V28.4219H25.7346V38.3828ZM36.3742 22.4795V38.3828H28.8596V27.25C28.8596 26.1709 27.9856 25.2969 26.9065 25.2969H19.094C18.0149 25.2969 17.1408 26.1709 17.1408 27.25V38.3828H9.62618V22.4795H4.93868L23.0051 4.42774L24.133 5.55567L41.0666 22.4795H36.3742Z" fill="black"/>
</svg>
