<svg width="100" height="100" viewBox="0 0 100 100" fill="none" xmlns="http://www.w3.org/2000/svg">
<path d="M15.675 34.45C20.34 30.825 24.21 33.325 29.375 39.305C29.955 39.98 30.735 39.19 31.18 38.805C31.62 38.415 38.435 32.28 38.77 32C39.1 31.705 39.5 31.155 38.975 30.54C37.7103 28.9757 36.4718 27.3905 35.26 25.785C26.22 13.96 59.99 5.93997 54.805 5.81497C52.165 5.74497 41.575 5.61997 39.99 5.79497C33.575 6.46997 25.52 12.465 21.465 15.26C16.16 18.89 14.18 21.02 13.855 21.315C12.355 22.625 13.615 25.65 10.895 28.035C8.01998 30.55 6.22498 28.645 4.55998 30.105C3.73498 30.835 1.42498 32.565 0.764975 33.14C0.0999751 33.725 -0.0200249 34.71 0.659975 35.495C0.659975 35.495 6.97997 42.475 7.50997 43.095C8.03497 43.705 9.46498 44.235 10.345 43.45C11.23 42.67 13.505 40.685 13.885 40.335C14.275 40.005 13.635 36.03 15.675 34.45ZM44.215 37.035C43.615 36.34 42.87 36.32 42.23 36.89L35.06 43.15C34.7832 43.4011 34.6145 43.7498 34.5893 44.1228C34.5641 44.4957 34.6844 44.8639 34.925 45.15L76.395 92.345C77.365 93.46 79.045 93.575 80.15 92.61L85 88.545C85.5338 88.0749 85.8606 87.4131 85.9093 86.7034C85.958 85.9938 85.7246 85.2936 85.26 84.755L44.215 37.035ZM99.51 16.95C99.14 14.48 97.86 14.995 97.195 16.04C96.53 17.095 93.59 21.55 92.38 23.57C91.18 25.57 88.22 29.525 82.71 25.62C76.97 21.565 78.965 18.735 79.965 16.83C80.97 14.915 84.055 9.54497 84.5 8.87997C84.945 8.20497 84.425 6.24497 82.645 7.06497C80.86 7.88497 70.03 12.19 68.53 18.365C66.995 24.645 69.815 30.26 64.28 35.835L57.565 42.835L64.31 50.665L72.58 42.815C74.55 40.835 78.76 38.91 82.57 39.78C90.735 41.625 95.19 38.56 97.875 33.49C100.285 28.96 99.885 19.42 99.51 16.95ZM13.695 85.265C13.1948 85.7688 12.9142 86.45 12.9142 87.16C12.9142 87.8699 13.1948 88.5511 13.695 89.055L18.45 93.705C19.49 94.75 21.14 94.31 22.18 93.265L46.715 69.145L39.2 60.575L13.695 85.265Z" fill="black"/>
</svg>
