<svg width="100" height="100" viewBox="0 0 100 100" fill="none" xmlns="http://www.w3.org/2000/svg">
<g clip-path="url(#clip0_151_108)">
<path d="M51.5906 59.7917C51.7003 60.2398 52.0084 60.6316 52.4475 60.8815C52.8865 61.1314 53.4208 61.2189 53.9334 61.125H53.9191L85.6239 55.0917C85.8801 55.044 86.1225 54.951 86.3363 54.8185C86.55 54.6859 86.7305 54.5166 86.8668 54.3209L86.8715 54.3125C87.0147 54.1145 87.1112 53.8934 87.1554 53.6623C87.1995 53.4312 87.1905 53.1947 87.1287 52.9667L87.1334 52.9792C78.5001 27.275 61.1049 7.97919 39.3763 -0.0208129H39.1906C38.8942 -0.0208754 38.6016 0.03739 38.3345 0.14967C38.0673 0.261949 37.8325 0.425368 37.6473 0.627826C37.4621 0.830285 37.3313 1.0666 37.2646 1.31927C37.1979 1.57195 37.197 1.83451 37.262 2.08752L37.2572 2.07502L51.5906 59.7917ZM20.9287 67.375L45.9715 62.6334C46.4805 62.5375 46.9266 62.2713 47.2144 61.8917L47.2192 61.8834C47.3675 61.6961 47.4673 61.4827 47.5117 61.2582C47.5562 61.0337 47.5441 60.8034 47.4763 60.5834L47.4811 60.5959L39.5049 28.4584C39.4286 28.1193 39.2344 27.8091 38.9488 27.5704C38.6632 27.3317 38.3002 27.1761 37.9096 27.125H37.9001C37.8145 27.1061 37.7265 27.0963 37.6382 27.0959H37.5668H37.5715C37.2281 27.0957 36.8906 27.174 36.5924 27.3231C36.2942 27.4722 36.0457 27.6869 35.8715 27.9459L35.8668 27.9542L35.3096 28.7875C27.8906 39.8125 21.4572 49.35 18.5477 65.4334C18.4996 65.7094 18.5277 65.9914 18.6296 66.256C18.7315 66.5206 18.9042 66.7599 19.1334 66.9542C19.382 67.1348 19.6731 67.2651 19.9859 67.3357C20.2988 67.4063 20.6256 67.4154 20.943 67.3625H20.9287V67.375ZM18.5049 84.925C18.9066 84.9186 19.2922 84.7854 19.5906 84.55L20.7334 83.55C22.8968 81.6697 25.8223 80.6144 28.8715 80.6144C31.9208 80.6144 34.8463 81.6697 37.0096 83.55L38.1525 84.55C38.4274 84.7888 38.7985 84.9235 39.1858 84.925H39.2334C39.6352 84.9186 40.0207 84.7854 40.3191 84.55L41.5334 83.4875C43.6888 81.6266 46.5959 80.5845 49.6239 80.5875C52.7953 80.5875 55.662 81.7083 57.7477 83.5167L58.862 84.4917C59.1528 84.7388 59.5379 84.8828 59.943 84.8958H59.9477C60.3495 84.8894 60.735 84.7563 61.0334 84.5208L62.1477 83.5458C64.3111 81.6655 67.2366 80.6102 70.2858 80.6102C73.3351 80.6102 76.2606 81.6655 78.4239 83.5458L79.5668 84.5458C79.8334 84.775 80.1953 84.9208 80.6001 84.9208H80.6525H80.6477C81.0495 84.9144 81.435 84.7813 81.7334 84.5458L82.8763 83.5458C83.9769 82.5838 85.2913 81.8293 86.7382 81.3292L86.8144 81.3042C86.9144 81.1292 87.043 80.9917 87.143 80.8167L98.9906 59.6792C99.1649 59.3584 99.2353 59.0019 99.1942 58.6486C99.1531 58.2952 99.0019 57.9584 98.7572 57.675L98.762 57.6792C98.508 57.3968 98.1683 57.1826 97.7819 57.0611C97.3954 56.9395 96.9776 56.9155 96.5763 56.9917L96.5906 56.9875L12.4668 72.9542C12.0894 73.0279 11.7348 73.1724 11.4276 73.3777C11.1203 73.583 10.8676 73.8442 10.6869 74.1434C10.5062 74.4425 10.4019 74.7723 10.3812 75.1101C10.3605 75.448 10.4238 75.7857 10.5668 76.1L10.562 76.0833L13.2525 82.0583C14.9001 82.6625 16.3049 83.5 17.4858 84.5292C17.592 84.6523 17.7295 84.7521 17.8873 84.8208C18.0451 84.8895 18.2191 84.9252 18.3953 84.925L18.5144 84.9208H18.5096L18.5049 84.925ZM97.243 93.7125C95.6239 92.3083 93.4001 91.4458 90.943 91.4458C88.4858 91.4458 86.2572 92.3125 84.643 93.7167L83.5001 94.7167C82.7309 95.3816 81.6932 95.7544 80.612 95.7544C79.5308 95.7544 78.4931 95.3816 77.7239 94.7167L76.5811 93.7167C74.962 92.3125 72.7382 91.45 70.2811 91.45C67.8239 91.45 65.5953 92.3167 63.9811 93.7208L62.8668 94.6958C62.0994 95.3587 61.0642 95.7301 59.9858 95.7292H59.9572C59.4223 95.7297 58.8928 95.6359 58.4003 95.4533C57.9078 95.2707 57.4623 95.0032 57.0906 94.6667L55.9715 93.6875C54.2904 92.2303 52.0189 91.414 49.6525 91.4167C47.2049 91.4167 44.9906 92.2708 43.3668 93.6583L42.1525 94.7208C41.3833 95.3857 40.3456 95.7586 39.2644 95.7586C38.1832 95.7586 37.1455 95.3857 36.3763 94.7208L35.2334 93.7208C33.6144 92.3167 31.3906 91.45 28.9287 91.45C26.4668 91.45 24.243 92.3167 22.6239 93.7208L21.4811 94.7208C20.7119 95.3857 19.6742 95.7586 18.593 95.7586C17.5117 95.7586 16.4741 95.3857 15.7049 94.7208C13.7906 93.0708 11.1572 92.05 8.25248 92.05C5.34772 92.05 2.71915 93.0708 0.800102 94.7208C0.572617 94.9167 0.391948 95.1501 0.268624 95.4077C0.1453 95.6652 0.0817871 95.9416 0.0817871 96.2208C0.0817871 96.5001 0.1453 96.7765 0.268624 97.034C0.391948 97.2916 0.572617 97.525 0.800102 97.7208C1.25122 98.1192 1.86399 98.3453 2.50486 98.35H2.52391C3.15503 98.3517 3.76117 98.1344 4.20963 97.7458C4.73888 97.2802 5.36809 96.9107 6.06108 96.6586C6.75408 96.4064 7.4972 96.2767 8.24772 96.2767C8.99824 96.2767 9.74136 96.4064 10.4344 96.6586C11.1274 96.9107 11.7566 97.2802 12.2858 97.7458C13.9049 99.1458 16.1287 100.013 18.5858 100.013C21.043 100.013 23.2715 99.1458 24.8858 97.7458L26.0287 96.7458C26.7979 96.081 27.8355 95.7081 28.9168 95.7081C29.998 95.7081 31.0357 96.081 31.8049 96.7458L32.9477 97.7458C34.5477 99.1458 36.7572 100.013 39.2001 100.013H39.2525H39.2477H39.262C41.7001 100.013 43.9096 99.1583 45.5191 97.7708L46.7668 96.7083C47.536 96.0435 48.5736 95.6706 49.6549 95.6706C50.7361 95.6706 51.7738 96.0435 52.543 96.7083L53.6572 97.6833C55.2668 99.1 57.4953 99.975 59.9572 99.9792H60.0096C62.4525 99.9792 64.662 99.1125 66.2572 97.7125L67.3715 96.7375C68.1407 96.0726 69.1784 95.6998 70.2596 95.6998C71.3409 95.6998 72.3785 96.0726 73.1477 96.7375L74.2906 97.7375C75.9096 99.1375 78.1334 100.004 80.5906 100.004C83.0477 100.004 85.2763 99.1375 86.8906 97.7375L88.0334 96.7375C88.8026 96.0726 89.8403 95.6998 90.9215 95.6998C92.0028 95.6998 93.0404 96.0726 93.8096 96.7375C94.243 97.1125 94.8382 97.3417 95.5001 97.3417H95.5525C95.866 97.3416 96.1763 97.2858 96.4644 97.1777C96.7525 97.0695 97.0125 96.9113 97.2287 96.7125C97.4587 96.5185 97.6417 96.286 97.7669 96.0288C97.892 95.7716 97.9568 95.495 97.9572 95.2155C97.9577 94.9359 97.8938 94.6592 97.7695 94.4017C97.6451 94.1442 97.4628 93.9112 97.2334 93.7167L97.243 93.7125Z" fill="black"/>
<path d="M8.13328 87.6792H8.15233C9.72376 87.6792 11.1428 88.2375 12.1714 89.1417C13.7904 90.5459 16.0142 91.4084 18.4714 91.4084C20.9285 91.4084 23.1571 90.5417 24.7714 89.1375L25.9142 88.1375C26.6834 87.4726 27.7211 87.0998 28.8023 87.0998C29.8836 87.0998 30.9212 87.4726 31.6904 88.1375L32.8333 89.1375C34.4333 90.5417 36.6428 91.4084 39.0904 91.4084H39.138H39.1333H39.1476C41.5857 91.4084 43.7952 90.5542 45.4047 89.1667L46.6523 88.1042C47.4273 87.4343 48.4746 87.0611 49.564 87.0665C50.6534 87.072 51.6957 87.4557 52.4618 88.1334L53.5761 89.1084C55.1857 90.5209 57.4142 91.4 59.8761 91.4042H59.9238C62.3666 91.4042 64.5761 90.5375 66.1761 89.1334L67.2904 88.1584C68.0596 87.4935 69.0973 87.1206 70.1785 87.1206C71.2597 87.1206 72.2974 87.4935 73.0666 88.1584L74.2095 89.1584C75.8285 90.5625 78.0523 91.425 80.5095 91.425C82.9666 91.425 85.1952 90.5584 86.8095 89.1542L87.9523 88.1542C88.7215 87.4893 89.7592 87.1165 90.8404 87.1165C91.9216 87.1165 92.9593 87.4893 93.7285 88.1542C94.1618 88.5292 94.7571 88.7584 95.4142 88.7584H95.4666C95.7801 88.7583 96.0904 88.7025 96.3785 88.5944C96.6667 88.4862 96.9267 88.3279 97.1428 88.1292C97.3703 87.9334 97.551 87.6999 97.6743 87.4424C97.7976 87.1848 97.8611 86.9084 97.8611 86.6292C97.8611 86.35 97.7976 86.0735 97.6743 85.816C97.551 85.5585 97.3703 85.325 97.1428 85.1292C95.5238 83.725 93.2999 82.8625 90.8428 82.8625C88.3857 82.8625 86.1571 83.7292 84.5428 85.1334L83.3999 86.1334C82.6307 86.7982 81.5931 87.1711 80.5118 87.1711C79.4306 87.1711 78.3929 86.7982 77.6238 86.1334L76.4809 85.1334C74.8619 83.7292 72.638 82.8667 70.1809 82.8667C67.7238 82.8667 65.4952 83.7334 63.8809 85.1375L62.7666 86.1125C61.9992 86.7754 60.964 87.1467 59.8857 87.1459H59.8571C59.3222 87.1464 58.7927 87.0525 58.3001 86.87C57.8076 86.6874 57.3622 86.4199 56.9904 86.0834L55.8714 85.1042C54.1904 83.6499 51.921 82.8352 49.5571 82.8375C47.1095 82.8375 44.8904 83.6917 43.2714 85.0792L42.0571 86.1417C41.2879 86.8066 40.2502 87.1794 39.169 87.1794C38.0878 87.1794 37.0501 86.8066 36.2809 86.1417L35.138 85.1417C33.519 83.7375 31.2952 82.8709 28.8333 82.8709C26.3714 82.8709 24.1476 83.7375 22.5285 85.1417L21.3857 86.1417C20.6165 86.8066 19.5788 87.1794 18.4976 87.1794C17.4163 87.1794 16.3787 86.8066 15.6095 86.1417C13.6952 84.4917 11.0619 83.4709 8.15709 83.4709C5.25233 83.4709 2.62376 84.4917 0.704707 86.1417C0.474274 86.336 0.290983 86.569 0.165791 86.8268C0.0405986 87.0845 -0.0239258 87.3617 -0.0239258 87.6417C-0.0239258 87.9217 0.0405986 88.1989 0.165791 88.4566C0.290983 88.7144 0.474274 88.9473 0.704707 89.1417C1.15504 89.5415 1.76791 89.7692 2.40947 89.775H2.42852C3.05963 89.7767 3.66578 89.5594 4.11423 89.1709C5.11899 88.25 6.52852 87.675 8.09995 87.675H8.12375L8.13328 87.6792Z" fill="black"/>
</g>
<defs>
<clipPath id="clip0_151_108">
<rect width="100" height="100" fill="white"/>
</clipPath>
</defs>
</svg>
