<svg width="500" height="500" viewBox="0 0 500 500" fill="none" xmlns="http://www.w3.org/2000/svg">
<path d="M354.167 353.958C326.042 353.958 308.333 362.708 292.708 370.625C279.167 377.5 268.125 383.125 250 383.125C231.25 383.125 220.833 377.917 207.292 370.625C191.667 362.708 174.583 353.958 145.833 353.958C117.083 353.958 100 362.708 84.3751 370.625C70.8334 377.5 60.0001 383.125 41.6667 383.125V423.75C69.7918 423.75 87.5001 415 103.125 407.083C116.667 400.208 127.5 394.583 145.833 394.583C164.167 394.583 175 399.792 188.542 407.083C204.167 415 221.25 423.75 250 423.75C278.75 423.75 295.833 415 311.458 407.083C325 400.208 336.042 394.583 354.167 394.583C372.917 394.583 383.333 399.792 396.875 407.083C412.5 415 429.792 423.75 458.333 423.75V383.125C439.583 383.125 429.167 377.917 415.625 370.625C400 362.708 382.292 353.958 354.167 353.958ZM354.167 261.25C326.042 261.25 308.333 270.208 292.708 277.917C279.167 284.583 268.125 290.417 250 290.417C231.25 290.417 220.833 285.208 207.292 277.917C191.667 270 174.583 261.25 145.833 261.25C117.083 261.25 100 270.208 84.3751 277.917C70.8334 284.583 60.0001 290.417 41.6667 290.417V331.042C69.7918 331.042 87.5001 322.083 103.125 314.375C116.667 307.083 127.083 301.875 145.833 301.875C164.583 301.875 175 307.083 188.542 314.375C204.167 322.292 221.25 331.042 250 331.042C278.75 331.042 295.833 322.083 311.458 314.375C325 307.083 335.417 301.875 354.167 301.875C372.917 301.875 383.333 307.083 396.875 314.375C412.5 322.292 429.792 331.042 458.333 331.042V290.417C439.583 290.417 429.167 285.208 415.625 277.917C400 270 382.292 261.25 354.167 261.25ZM415.625 92.9167C400 85 382.708 76.25 354.167 76.25C325.625 76.25 308.333 85 292.708 92.9167C279.167 99.5833 268.125 105.417 250 105.417C231.25 105.417 220.833 100.208 207.292 92.9167C191.667 85.2083 174.583 76.25 145.833 76.25C117.083 76.25 100 85 84.3751 92.9167C70.8334 99.7917 60.0001 105.417 41.6667 105.417V145.625C69.7918 145.625 87.5001 136.667 103.125 128.958C116.667 122.083 127.5 116.458 145.833 116.458C164.167 116.458 175 121.667 188.542 128.958C204.167 136.875 221.25 145.625 250 145.625C278.75 145.625 295.833 136.667 311.458 128.958C325 122.292 336.042 116.458 354.167 116.458C372.917 116.458 383.333 121.667 396.875 128.958C412.5 136.875 429.792 145.625 458.333 145.625V105C439.583 105 429.167 99.7917 415.625 92.9167ZM354.167 168.542C326.042 168.542 308.333 177.5 292.708 185.208C279.167 192.5 268.75 197.708 250 197.708C231.25 197.708 220.833 192.5 207.292 185.208C191.667 177.292 174.583 168.542 145.833 168.542C117.083 168.542 100 177.5 84.3751 185.208C70.8334 192.5 60.4167 197.708 41.6667 197.708V238.333C69.7918 238.333 87.5001 229.375 103.125 221.667C116.667 215 127.708 209.167 145.833 209.167C163.958 209.167 175 214.375 188.542 221.667C204.167 229.583 221.25 238.333 250 238.333C278.75 238.333 295.833 229.375 311.458 221.667C325 215 336.042 209.167 354.167 209.167C372.917 209.167 383.333 214.375 396.875 221.667C412.5 229.583 429.792 238.333 458.333 238.333V197.708C439.583 197.708 429.167 192.5 415.625 185.208C400 177.292 382.292 168.542 354.167 168.542Z" fill="#5DA9E9"/>
</svg>
