<svg width="28" height="28" viewBox="0 0 28 28" fill="none" xmlns="http://www.w3.org/2000/svg">
<path d="M8.0533 19.9413L10.4013 19.264L24.5386 4.95733C24.6501 4.84306 24.7122 4.68951 24.7115 4.52985C24.7107 4.37018 24.6472 4.21722 24.5346 4.104L23.688 3.248C23.6333 3.19178 23.5679 3.14702 23.4957 3.11634C23.4235 3.08566 23.3459 3.06966 23.2675 3.06929C23.189 3.06892 23.1113 3.08418 23.0388 3.11417C22.9663 3.14417 22.9005 3.1883 22.8453 3.244L8.7453 17.5133L8.05197 19.94L8.0533 19.9413ZM25.364 1.552L26.2106 2.40933C27.3786 3.592 27.3893 5.5 26.232 6.67067L11.664 21.4147L6.6453 22.86C6.3389 22.9458 6.01098 22.9065 5.73352 22.7507C5.45605 22.595 5.2517 22.3356 5.1653 22.0293C5.10101 21.8092 5.10009 21.5753 5.16264 21.3547L6.62264 16.2347L21.152 1.52933C21.4282 1.25114 21.7571 1.03075 22.1195 0.881002C22.4818 0.731256 22.8704 0.655157 23.2624 0.657142C23.6545 0.659128 24.0422 0.739159 24.4031 0.892568C24.7639 1.04598 25.0905 1.26969 25.364 1.55067V1.552ZM10.0053 3.08933C10.6666 3.08933 11.2026 3.632 11.2026 4.30133C11.2037 4.45956 11.1735 4.61644 11.1139 4.763C11.0543 4.90957 10.9664 5.04295 10.8552 5.15551C10.744 5.26807 10.6117 5.35761 10.4659 5.41901C10.32 5.48041 10.1635 5.51246 10.0053 5.51333H5.21597C3.8933 5.51333 2.8213 6.59867 2.8213 7.936V22.4773C2.8213 23.816 3.8933 24.9013 5.21597 24.9013H19.584C20.9066 24.9013 21.98 23.816 21.98 22.4773V17.6307C21.98 16.9613 22.516 16.4187 23.1773 16.4187C23.8386 16.4187 24.3746 16.9613 24.3746 17.632V22.4773C24.3746 25.1547 22.2293 27.3253 19.584 27.3253H5.21597C2.57064 27.3253 0.426636 25.1547 0.426636 22.4773V7.936C0.426636 5.26 2.57064 3.08933 5.21597 3.08933H10.0053Z" fill="black"/>
</svg>
